# xmcd
#
# Track frame offsets:
#	150
#	17374
#	35526
#	52384
#	68544
#	83153
#	102369
#	122119
#	140551
#	152834
#	171066
#	186854
#	208744
#	226366
#	245299
#	261001
#	273921
#	287689
#	306671
#
# Disc length: 4301 seconds
#
# Revision: 2
# Processed by: cddbd v1.5.2PL0 Copyright (c) Steve Scherf et al.
# Submitted via: audiograbber 1.83.01
#
DISCID=1210cb13
DTITLE=Travis Tritt - Top Hits Vol 23
DYEAR=1900
DGENRE=Country
TTITLE0=No More Looking Over My Shoulder
TTITLE1=If I Lost You
TTITLE2=Anymore
TTITLE3=Can I Trust You With My Heart
TTITLE4=Country Club
TTITLE5=Drift Off To Dream
TTITLE6=Foolish Pride
TTITLE7=Help Me Hold On
TTITLE8=Here's A Quarter, Call Someone Who Cares
TTITLE9=I'm Gonna Be Somebody
TTITLE10=Lookin Out For Number One
TTITLE11=Lord Have Mercy On The Workin Man
TTITLE12=Nothin Short Of Dying
TTITLE13=Put Some Drive In Your Country
TTITLE14=Take It Easy
TTITLE15=The Whisky Ain't Workin
TTITLE16=Trouble
TTITLE17=Worth Every Mile
TTITLE18=This One's Gonna Hurt You
EXTD=
EXTT0=
EXTT1=
EXTT2=
EXTT3=
EXTT4=
EXTT5=
EXTT6=
EXTT7=
EXTT8=
EXTT9=
EXTT10=
EXTT11=
EXTT12=
EXTT13=
EXTT14=
EXTT15=
EXTT16=
EXTT17=
EXTT18=
PLAYORDER=
